<svg width="28" height="28" viewBox="0 0 28 28" fill="none" xmlns="http://www.w3.org/2000/svg">
<path d="M16.4757 11.5267C17.8418 12.8928 17.8418 15.1107 16.4757 16.4792C15.1095 17.8453 12.8917 17.8453 11.5232 16.4792C10.157 15.113 10.157 12.8952 11.5232 11.5267C12.8917 10.1582 15.1083 10.1582 16.4757 11.5267" stroke="#007FBA" stroke-width="2" stroke-linecap="round" stroke-linejoin="round"/>
<path d="M14 22.1667C9.69383 22.1667 5.78783 19.8438 4.02033 16.2307V16.2307C3.67733 15.5295 3.5 14.7688 3.5 14C3.5 13.2312 3.67733 12.4705 4.02033 11.7693V11.7693C5.78783 8.15616 9.69383 5.83333 14 5.83333C18.3062 5.83333 22.2122 8.15616 23.9797 11.7693V11.7693C24.3227 12.4705 24.5 13.2312 24.5 14" stroke="#007FBA" stroke-width="2" stroke-linecap="round" stroke-linejoin="round"/>
<path d="M23.9167 21H19.25" stroke="#007FBA" stroke-width="2" stroke-linecap="round" stroke-linejoin="round"/>
<path d="M21.5833 18.6667V23.3333" stroke="#007FBA" stroke-width="2" stroke-linecap="round" stroke-linejoin="round"/>
</svg>
