<svg width="9" height="13" viewBox="0 0 9 13" fill="none" xmlns="http://www.w3.org/2000/svg">
<g clip-path="url(#clip0_1304_615)">
<path d="M2.7 0H0.9C0.661305 0 0.432387 0.0948205 0.263604 0.263603C0.0948212 0.432386 0 0.661307 0 0.900002L0 2.7C0 2.9387 0.0948212 3.16761 0.263604 3.3364C0.432387 3.50518 0.661305 3.6 0.9 3.6H2.7C2.93869 3.6 3.16761 3.50518 3.3364 3.3364C3.50518 3.16761 3.6 2.9387 3.6 2.7V0.900002C3.6 0.661307 3.50518 0.432386 3.3364 0.263603C3.16761 0.0948205 2.93869 0 2.7 0ZM2.7 4.5H0.9C0.661305 4.5 0.432387 4.59482 0.263604 4.7636C0.0948212 4.93239 0 5.16131 0 5.4L0 7.2C0 7.4387 0.0948212 7.66761 0.263604 7.8364C0.432387 8.00518 0.661305 8.1 0.9 8.1H2.7C2.93869 8.1 3.16761 8.00518 3.3364 7.8364C3.50518 7.66761 3.6 7.4387 3.6 7.2V5.4C3.6 5.16131 3.50518 4.93239 3.3364 4.7636C3.16761 4.59482 2.93869 4.5 2.7 4.5ZM2.7 9H0.9C0.661305 9 0.432387 9.09482 0.263604 9.2636C0.0948212 9.43239 0 9.66131 0 9.9L0 11.7C0 11.9387 0.0948212 12.1676 0.263604 12.3364C0.432387 12.5052 0.661305 12.6 0.9 12.6H2.7C2.93869 12.6 3.16761 12.5052 3.3364 12.3364C3.50518 12.1676 3.6 11.9387 3.6 11.7V9.9C3.6 9.66131 3.50518 9.43239 3.3364 9.2636C3.16761 9.09482 2.93869 9 2.7 9ZM8.1 0H6.3C6.06131 0 5.83239 0.0948205 5.6636 0.263603C5.49482 0.432386 5.4 0.661307 5.4 0.900002V2.7C5.4 2.9387 5.49482 3.16761 5.6636 3.3364C5.83239 3.50518 6.06131 3.6 6.3 3.6H8.1C8.3387 3.6 8.56761 3.50518 8.7364 3.3364C8.90518 3.16761 9 2.9387 9 2.7V0.900002C9 0.661307 8.90518 0.432386 8.7364 0.263603C8.56761 0.0948205 8.3387 0 8.1 0ZM8.1 4.5H6.3C6.06131 4.5 5.83239 4.59482 5.6636 4.7636C5.49482 4.93239 5.4 5.16131 5.4 5.4V7.2C5.4 7.4387 5.49482 7.66761 5.6636 7.8364C5.83239 8.00518 6.06131 8.1 6.3 8.1H8.1C8.3387 8.1 8.56761 8.00518 8.7364 7.8364C8.90518 7.66761 9 7.4387 9 7.2V5.4C9 5.16131 8.90518 4.93239 8.7364 4.7636C8.56761 4.59482 8.3387 4.5 8.1 4.5ZM8.1 9H6.3C6.06131 9 5.83239 9.09482 5.6636 9.2636C5.49482 9.43239 5.4 9.66131 5.4 9.9V11.7C5.4 11.9387 5.49482 12.1676 5.6636 12.3364C5.83239 12.5052 6.06131 12.6 6.3 12.6H8.1C8.3387 12.6 8.56761 12.5052 8.7364 12.3364C8.90518 12.1676 9 11.9387 9 11.7V9.9C9 9.66131 8.90518 9.43239 8.7364 9.2636C8.56761 9.09482 8.3387 9 8.1 9Z" fill="#455A64"/>
</g>
<defs>
<clipPath id="clip0_1304_615">
<rect width="9" height="12.6" fill="white"/>
</clipPath>
</defs>
</svg>
