<svg width="32" height="32" viewBox="0 0 32 32" fill="none" xmlns="http://www.w3.org/2000/svg">
<path opacity="0.4" d="M16.895 6.19165H4.79998C3.03498 6.19165 1.59998 7.6218 1.59998 9.38084V20.0696L2.55998 19.1128C3.57498 18.1013 5.21998 18.1013 6.23498 19.1128C6.89998 19.7706 7.12998 20.6925 6.92998 21.5396H12.8C14.235 21.5396 15.4 22.7007 15.4 24.1308C15.4 24.5644 15.295 24.968 15.105 25.3268H27.2C28.965 25.3268 30.4 23.8966 30.4 22.1376V11.4488L29.44 12.4056C28.425 13.4172 26.78 13.4172 25.765 12.4056C25.1 11.7478 24.87 10.8259 25.07 9.97881H19.2C17.765 9.97881 16.6 8.81775 16.6 7.3876C16.6 6.95407 16.705 6.55043 16.895 6.19165ZM4.79998 12.57V9.38084H7.99998C7.99998 11.1399 6.56498 12.57 4.79998 12.57ZM24 22.1376C24 20.3786 25.435 18.9484 27.2 18.9484V22.1376H24ZM11.2 15.7592C11.2 14.4905 11.7057 13.2737 12.6059 12.3766C13.506 11.4794 14.7269 10.9754 16 10.9754C17.273 10.9754 18.4939 11.4794 19.3941 12.3766C20.2943 13.2737 20.8 14.4905 20.8 15.7592C20.8 17.028 20.2943 18.2447 19.3941 19.1419C18.4939 20.039 17.273 20.543 16 20.543C14.7269 20.543 13.506 20.039 12.6059 19.1419C11.7057 18.2447 11.2 17.028 11.2 15.7592Z" fill="white"/>
<path d="M27.905 6.19168H19.2C18.535 6.19168 18 6.72487 18 7.38763C18 8.05038 18.535 8.58357 19.2 8.58357H27.905L26.755 9.72969C26.285 10.1981 26.285 10.9555 26.755 11.419C27.225 11.8824 27.985 11.8874 28.45 11.419L31.65 8.22977C31.875 8.00553 32 7.70156 32 7.38264C32 7.06372 31.875 6.75976 31.65 6.53552L28.45 3.35131C27.98 2.8829 27.22 2.8829 26.755 3.35131C26.29 3.81972 26.285 4.57715 26.755 5.04058L27.905 6.1867V6.19168ZM4.095 22.9349L5.245 21.7888C5.715 21.3204 5.715 20.563 5.245 20.0995C4.775 19.6361 4.015 19.6311 3.55 20.0995L0.35 23.2837C0.125 23.508 0 23.812 0 24.1309C0 24.4498 0.125 24.7538 0.35 24.978L3.55 28.1672C4.02 28.6356 4.78 28.6356 5.245 28.1672C5.71 27.6988 5.715 26.9413 5.245 26.4779L4.095 25.3318L12.8 25.3268C13.465 25.3268 14 24.7936 14 24.1309C14 23.4681 13.465 22.9349 12.8 22.9349H4.095Z" fill="white"/>
</svg>
