<svg width="31" height="22" viewBox="0 0 31 22" fill="none" xmlns="http://www.w3.org/2000/svg">
<path opacity="0.4" d="M21.602 4.39975H5.60041C2.50739 4.39975 0 6.90705 0 9.99995C0 13.0929 2.50739 15.6002 5.60041 15.6002H21.602C24.695 15.6002 27.2024 13.0929 27.2024 9.99995C27.2024 6.90705 24.695 4.39975 21.602 4.39975Z" fill="#007FBA"/>
<g filter="url(#filter0_d_1304_623)">
<path d="M19.9996 18C24.418 18 27.9999 14.4183 27.9999 10C27.9999 5.58172 24.418 2 19.9996 2C15.5811 2 11.9993 5.58172 11.9993 10C11.9993 14.4183 15.5811 18 19.9996 18Z" fill="#007FBA"/>
</g>
<defs>
<filter id="filter0_d_1304_623" x="8.99927" y="0" width="22.0006" height="22" filterUnits="userSpaceOnUse" color-interpolation-filters="sRGB">
<feFlood flood-opacity="0" result="BackgroundImageFix"/>
<feColorMatrix in="SourceAlpha" type="matrix" values="0 0 0 0 0 0 0 0 0 0 0 0 0 0 0 0 0 0 127 0" result="hardAlpha"/>
<feOffset dy="1"/>
<feGaussianBlur stdDeviation="1.5"/>
<feColorMatrix type="matrix" values="0 0 0 0 0 0 0 0 0 0 0 0 0 0 0 0 0 0 0.212 0"/>
<feBlend mode="normal" in2="BackgroundImageFix" result="effect1_dropShadow_1304_623"/>
<feBlend mode="normal" in="SourceGraphic" in2="effect1_dropShadow_1304_623" result="shape"/>
</filter>
</defs>
</svg>
